# xmcd
#
# Track frame offsets:
#	150
#	16089
#	32799
#	50899
#	65734
#	80901
#	93970
#	120605
#	139792
#	155499
#	172305
#	183041
#	195521
#	215714
#
# Disc length: 3172 seconds
#
# Revision: 0
# Processed by: cddbd v1.5.1PL0 Copyright (c) Steve Scherf et al.
# Submitted via: dBpowerAMP V4.0
#
DISCID=cb0c620e
DTITLE=Kingsnakes - Number One
DYEAR=2000
DGENRE=Blues
TTITLE0=Highway man
TTITLE1=Who will be next
TTITLE2=I'm glad you reconsidered
TTITLE3=Wait on time
TTITLE4=Tore up
TTITLE5=Cross-eyed Suzy Lee
TTITLE6=Caladonia
TTITLE7=I like the way you do
TTITLE8=Mellow down easy
TTITLE9=Harry's Boogie
TTITLE10=(I'm your) Boogie man
TTITLE11=Lil' Irene
TTITLE12=One's too many
TTITLE13=Shakin' all over
EXTD=
EXTT0=
EXTT1=
EXTT2=
EXTT3=
EXTT4=
EXTT5=
EXTT6=
EXTT7=
EXTT8=
EXTT9=
EXTT10=
EXTT11=
EXTT12=
EXTT13=
PLAYORDER=
